<svg xmlns="http://www.w3.org/2000/svg" xmlns:xlink="http://www.w3.org/1999/xlink" width="675pt" height="190pt" viewBox="0.00 0.00 675.00 190.00">
<g id="graph0" class="graph" transform="scale(1 1) rotate(0) translate(4 185.73)">
<title>bettergraph</title>
<polygon fill="white" stroke="none" points="-4,4 -4,-185.73 671.33,-185.73 671.33,4 -4,4"/>
<!-- endpoint_18:31:bf:b7:f5:11 -->
<g id="node1" class="node">
<title>endpoint_18:31:bf:b7:f5:11</title>
<polygon fill="#e0eeee" stroke="#e0eeee" points="296,-101.69 0,-101.69 0,-60.09 296,-60.09 296,-101.69"/>
<text xml:space="preserve" text-anchor="middle" x="148" y="-85.09" font-family="Times,serif" font-size="14.00">192.168.1.75</text>
<text xml:space="preserve" text-anchor="middle" x="148" y="-68.29" font-family="Times,serif" font-size="14.00">(18:31:bf:b7:f5:11 ASUSTek COMPUTER INC.)</text>
</g>
<!-- gateway_04:70:56:22:4c:2e -->
<g id="node4" class="node">
<title>gateway_04:70:56:22:4c:2e</title>
<polygon fill="#838b8b" stroke="#838b8b" points="365.49,-181.73 109.22,-140.13 365.49,-98.53 621.76,-140.13 365.49,-181.73"/>
<text xml:space="preserve" text-anchor="middle" x="365.49" y="-144.33" font-family="Times,serif" font-size="14.00">192.168.1.254</text>
<text xml:space="preserve" text-anchor="middle" x="365.49" y="-127.53" font-family="Times,serif" font-size="14.00">(04:70:56:22:4c:2e Arcadyan Corporation)</text>
</g>
<!-- endpoint_18:31:bf:b7:f5:11&#45;&gt;gateway_04:70:56:22:4c:2e -->
<g id="edge4" class="edge">
<title>endpoint_18:31:bf:b7:f5:11-&gt;gateway_04:70:56:22:4c:2e</title>
<path fill="none" stroke="black" stroke-width="2" d="M203.28,-102.18C214.82,-105.69 227.43,-109.36 240.36,-112.98"/>
<polygon fill="black" stroke="black" stroke-width="2" points="239.34,-116.33 249.91,-115.63 241.21,-109.59 239.34,-116.33"/>
<text xml:space="preserve" text-anchor="middle" x="188.38" y="-111.78" font-family="Times,serif" font-size="14.00">connects_to</text>
</g>
<!-- endpoint_76:3b:92:da:e7:52 -->
<g id="node2" class="node">
<title>endpoint_76:3b:92:da:e7:52</title>
<polygon fill="#e0eeee" stroke="#e0eeee" points="667.33,-105.08 536.63,-105.08 536.63,-63.48 667.33,-63.48 667.33,-105.08"/>
<text xml:space="preserve" text-anchor="middle" x="601.98" y="-88.48" font-family="Times,serif" font-size="14.00">192.168.1.82</text>
<text xml:space="preserve" text-anchor="middle" x="601.98" y="-71.68" font-family="Times,serif" font-size="14.00">(76:3b:92:da:e7:52 )</text>
</g>
<!-- endpoint_76:3b:92:da:e7:52&#45;&gt;gateway_04:70:56:22:4c:2e -->
<g id="edge6" class="edge">
<title>endpoint_76:3b:92:da:e7:52-&gt;gateway_04:70:56:22:4c:2e</title>
<path fill="none" stroke="black" stroke-width="2" d="M536.27,-93.55C514.69,-98.06 490.18,-103.64 466.6,-109.37"/>
<polygon fill="black" stroke="black" stroke-width="2" points="465.81,-105.96 456.94,-111.75 467.49,-112.76 465.81,-105.96"/>
<text xml:space="preserve" text-anchor="middle" x="468" y="-88.86" font-family="Times,serif" font-size="14.00">connects_to</text>
</g>
<!-- endpoint_88:d8:2e:f0:ca:3f -->
<g id="node3" class="node">
<title>endpoint_88:d8:2e:f0:ca:3f</title>
<polygon fill="#e0eeee" stroke="#e0eeee" points="493.01,-41.6 282.63,-41.6 282.63,0 493.01,0 493.01,-41.6"/>
<text xml:space="preserve" text-anchor="middle" x="387.82" y="-25" font-family="Times,serif" font-size="14.00">192.168.1.90</text>
<text xml:space="preserve" text-anchor="middle" x="387.82" y="-8.2" font-family="Times,serif" font-size="14.00">(88:d8:2e:f0:ca:3f Intel Corporate)</text>
</g>
<!-- endpoint_88:d8:2e:f0:ca:3f&#45;&gt;gateway_04:70:56:22:4c:2e -->
<g id="edge5" class="edge">
<title>endpoint_88:d8:2e:f0:ca:3f-&gt;gateway_04:70:56:22:4c:2e</title>
<path fill="none" stroke="black" stroke-width="2" d="M378.38,-41.97C375.01,-54.21 371.57,-70.2 368.84,-85.72"/>
<polygon fill="black" stroke="black" stroke-width="2" points="365.39,-85.13 367.22,-95.56 372.3,-86.26 365.39,-85.13"/>
<text xml:space="preserve" text-anchor="middle" x="340.17" y="-68.05" font-family="Times,serif" font-size="14.00">connects_to</text>
</g>
<!-- gateway_04:70:56:22:4c:2e&#45;&gt;endpoint_18:31:bf:b7:f5:11 -->
<g id="edge1" class="edge">
<title>gateway_04:70:56:22:4c:2e-&gt;endpoint_18:31:bf:b7:f5:11</title>
<path fill="none" stroke="black" stroke-width="2" d="M284.37,-111.22C277.72,-109.31 270.92,-107.4 264.08,-105.52"/>
<polygon fill="black" stroke="black" stroke-width="2" points="265.24,-102.21 254.67,-102.96 263.4,-108.96 265.24,-102.21"/>
<text xml:space="preserve" text-anchor="middle" x="249.74" y="-112.57" font-family="Times,serif" font-size="14.00">manages</text>
</g>
<!-- gateway_04:70:56:22:4c:2e&#45;&gt;endpoint_76:3b:92:da:e7:52 -->
<g id="edge3" class="edge">
<title>gateway_04:70:56:22:4c:2e-&gt;endpoint_76:3b:92:da:e7:52</title>
<path fill="none" stroke="black" stroke-width="2" d="M488.4,-118.04C501.28,-114.98 514.08,-111.83 526.19,-108.73"/>
<polygon fill="black" stroke="black" stroke-width="2" points="526.81,-112.19 535.61,-106.29 525.05,-105.41 526.81,-112.19"/>
<text xml:space="preserve" text-anchor="middle" x="482.81" y="-117.59" font-family="Times,serif" font-size="14.00">manages</text>
</g>
<!-- gateway_04:70:56:22:4c:2e&#45;&gt;endpoint_88:d8:2e:f0:ca:3f -->
<g id="edge2" class="edge">
<title>gateway_04:70:56:22:4c:2e-&gt;endpoint_88:d8:2e:f0:ca:3f</title>
<path fill="none" stroke="black" stroke-width="2" d="M379.44,-100.58C382.73,-85.73 385.75,-69.01 387.68,-54.72"/>
<polygon fill="black" stroke="black" stroke-width="2" points="391.14,-55.25 388.82,-44.91 384.19,-54.44 391.14,-55.25"/>
<text xml:space="preserve" text-anchor="middle" x="408.05" y="-81.85" font-family="Times,serif" font-size="14.00">manages</text>
</g>
</g>
</svg>